<mxfile host="www.draw.io" modified="2020-03-05T14:48:29.461Z" agent="Mozilla/5.0 (Windows NT 10.0; Win64; x64) AppleWebKit/537.36 (KHTML, like Gecko) Chrome/80.0.3987.132 Safari/537.36" etag="yR4esuDtznIdNTUO6iAB" version="12.8.0" type="github">
  <diagram name="Page-1" id="8ce9d11a-91a2-4d17-14d8-a56ed91bf033">
    <mxGraphModel dx="1634" dy="1931" grid="1" gridSize="10" guides="1" tooltips="1" connect="1" arrows="1" fold="1" page="1" pageScale="1" pageWidth="1654" pageHeight="1169" background="#ffffff" math="0" shadow="0">
      <root>
        <mxCell id="0" />
        <mxCell id="1" parent="0" />
        <mxCell id="uh_ICUrm-caqhC7j5tFn-1" value="System" style="shape=umlActor;verticalLabelPosition=bottom;labelBackgroundColor=#ffffff;verticalAlign=top;html=1;outlineConnect=0;" vertex="1" parent="1">
          <mxGeometry x="80" y="-700" width="30" height="60" as="geometry" />
        </mxCell>
        <mxCell id="uh_ICUrm-caqhC7j5tFn-8" style="edgeStyle=orthogonalEdgeStyle;orthogonalLoop=1;jettySize=auto;html=1;exitX=1;exitY=0.3333333333333333;exitDx=0;exitDy=0;exitPerimeter=0;entryX=0;entryY=0.5;entryDx=0;entryDy=0;endArrow=blockThin;endFill=1;strokeColor=#000000;fontSize=24;rounded=0;" edge="1" parent="1" source="uh_ICUrm-caqhC7j5tFn-2" target="uh_ICUrm-caqhC7j5tFn-5">
          <mxGeometry relative="1" as="geometry">
            <Array as="points">
              <mxPoint x="110" y="-210" />
            </Array>
          </mxGeometry>
        </mxCell>
        <mxCell id="uh_ICUrm-caqhC7j5tFn-12" style="edgeStyle=orthogonalEdgeStyle;rounded=0;orthogonalLoop=1;jettySize=auto;html=1;entryX=0;entryY=0.5;entryDx=0;entryDy=0;startArrow=none;startFill=0;endArrow=blockThin;endFill=1;strokeColor=#000000;fontSize=14;" edge="1" parent="1" source="uh_ICUrm-caqhC7j5tFn-2" target="uh_ICUrm-caqhC7j5tFn-11">
          <mxGeometry relative="1" as="geometry">
            <Array as="points">
              <mxPoint x="245" y="-210" />
              <mxPoint x="245" y="-410" />
            </Array>
          </mxGeometry>
        </mxCell>
        <mxCell id="uh_ICUrm-caqhC7j5tFn-16" style="edgeStyle=orthogonalEdgeStyle;rounded=0;orthogonalLoop=1;jettySize=auto;html=1;entryX=0;entryY=0.5;entryDx=0;entryDy=0;startArrow=none;startFill=0;endArrow=blockThin;endFill=1;strokeColor=#000000;fontSize=14;" edge="1" parent="1" source="uh_ICUrm-caqhC7j5tFn-2" target="uh_ICUrm-caqhC7j5tFn-13">
          <mxGeometry relative="1" as="geometry">
            <Array as="points">
              <mxPoint x="320" y="-210" />
              <mxPoint x="320" y="-480" />
            </Array>
          </mxGeometry>
        </mxCell>
        <mxCell id="uh_ICUrm-caqhC7j5tFn-2" value="Użytkownik" style="shape=umlActor;verticalLabelPosition=bottom;labelBackgroundColor=#ffffff;verticalAlign=top;html=1;outlineConnect=0;" vertex="1" parent="1">
          <mxGeometry x="50" y="-230" width="30" height="60" as="geometry" />
        </mxCell>
        <mxCell id="uh_ICUrm-caqhC7j5tFn-3" value="" style="whiteSpace=wrap;html=1;aspect=fixed;labelBackgroundColor=none;labelBorderColor=none;textOpacity=0;fillColor=none;" vertex="1" parent="1">
          <mxGeometry x="240" y="-960" width="830" height="830" as="geometry" />
        </mxCell>
        <mxCell id="uh_ICUrm-caqhC7j5tFn-4" value="Organizer" style="text;html=1;strokeColor=none;fillColor=none;align=center;verticalAlign=middle;whiteSpace=wrap;rounded=0;fontSize=24;" vertex="1" parent="1">
          <mxGeometry x="590" y="-1100" width="40" height="20" as="geometry" />
        </mxCell>
        <mxCell id="uh_ICUrm-caqhC7j5tFn-5" value="&lt;font style=&quot;font-size: 14px&quot;&gt;Obsługa kalendarza&lt;/font&gt;" style="ellipse;whiteSpace=wrap;html=1;fontSize=24;" vertex="1" parent="1">
          <mxGeometry x="410" y="-230" width="130" height="90" as="geometry" />
        </mxCell>
        <mxCell id="uh_ICUrm-caqhC7j5tFn-10" style="edgeStyle=orthogonalEdgeStyle;rounded=0;orthogonalLoop=1;jettySize=auto;html=1;endArrow=none;endFill=0;strokeColor=#000000;fontSize=14;startArrow=blockThin;startFill=1;" edge="1" parent="1" source="uh_ICUrm-caqhC7j5tFn-9">
          <mxGeometry relative="1" as="geometry">
            <mxPoint x="90" y="-210" as="targetPoint" />
          </mxGeometry>
        </mxCell>
        <mxCell id="uh_ICUrm-caqhC7j5tFn-9" value="Generowanie planu dnia wybranego w kalendarzu" style="ellipse;whiteSpace=wrap;html=1;fontSize=14;" vertex="1" parent="1">
          <mxGeometry x="470" y="-340" width="130" height="100" as="geometry" />
        </mxCell>
        <mxCell id="uh_ICUrm-caqhC7j5tFn-11" value="Generowanie planu dnia wybranego w kalendarzu" style="ellipse;whiteSpace=wrap;html=1;fontSize=14;" vertex="1" parent="1">
          <mxGeometry x="650" y="-270" width="130" height="100" as="geometry" />
        </mxCell>
        <mxCell id="uh_ICUrm-caqhC7j5tFn-13" value="&lt;span lang=&quot;PL&quot; style=&quot;font-size: 11.0pt ; line-height: 107% ; font-family: &amp;#34;arial&amp;#34; , &amp;#34;sans-serif&amp;#34;&quot;&gt;Dodanie zadań do listy&lt;br/&gt;zadań&lt;/span&gt;" style="ellipse;whiteSpace=wrap;html=1;fontSize=14;" vertex="1" parent="1">
          <mxGeometry x="560" y="-530" width="130" height="100" as="geometry" />
        </mxCell>
      </root>
    </mxGraphModel>
  </diagram>
</mxfile>
